<svg display="block" role="presentation" viewBox="0 0 40 40" xmlns="http://www.w3.org/2000/svg"><g d="M 19.956 9.022 C 19.956 9.022 18.089 8.733 16.667 10.222 C 15.289 11.667 15.4 13.622 15.4 13.622 L 16.644 11.844 C 16.644 11.844 16.8 11.733 16.733 11.511 C 16.644 11.311 16.644 11.244 16.644 11.244 L 16.644 10.911 L 22.022 10.867 C 22.022 10.867 23.467 10.8 23.467 12.289 C 23.467 13.778 22.467 13.867 22.467 13.867 C 22.467 13.867 24.022 14.2 24.022 15.911 C 24.022 17.667 22.178 18.133 22.178 18.133 L 18.133 18.089 C 18.133 18.089 17.8 17.822 18.156 17.667 C 18.533 17.533 18.711 17.467 18.711 17.267 C 18.711 17.067 18.711 17.067 18.711 17.067 C 18.711 17.067 17.844 16.978 17.222 16.2 C 16.622 15.467 16.756 14.244 16.756 14.244 L 15.956 14.222 L 15.444 15 C 15.444 15 15.689 16.911 16.622 17.756 C 17.533 18.622 18.178 19.4 20.378 19.289 C 22.578 19.2 24.2 18.067 24.2 18.067 L 24.622 17.689 C 24.622 17.689 24.778 17.356 25.111 17.556 C 25.422 17.711 24.778 18.378 24.778 18.378 C 24.778 18.378 23.444 20.178 20.022 20.378 C 16.622 20.578 14.244 17.044 14.4 16.867 C 14.556 16.711 13.889 17.489 14.244 17.689 C 14.622 17.889 14.422 18.2 14.422 18.2 L 11.933 18.222 C 11.933 18.222 11.778 18.311 11.778 17.978 C 11.778 17.689 12.044 17.711 12.044 17.711 C 12.044 17.711 12.956 17.689 13.244 17.2 C 13.533 16.756 13.978 16.067 13.978 16.067 C 13.978 16.067 13.711 14.556 13.778 13.911 C 13.822 13.289 14.311 9.911 16.911 8.8 C 19.533 7.711 22.133 8.6 22.133 8.6 C 22.133 8.6 22.6 8.867 22.956 8.6 C 23.289 8.333 23.422 8.067 23.689 8.578 C 23.911 9.089 24.444 9.911 24.444 9.911 C 24.444 9.911 24.689 10.644 23.622 10.044 C 22.533 9.422 20.8 9.067 20.8 9.067 L 19.956 9.022 Z M 17.8 14.222 L 18.711 14.222 L 18.711 16.044 C 18.711 16.044 18.2 15.933 18 15.489 C 17.778 15.067 17.8 14.222 17.8 14.222 Z M 16.511 13.489 L 16.889 13.511 C 16.889 13.511 17.089 12.911 17.6 12.533 C 18.133 12.156 18.711 12 18.711 12 C 18.711 12 18.844 11.511 18.467 11.556 C 18.089 11.578 17.756 11.6 17.756 11.6 C 17.756 11.6 17.556 11.6 17.422 11.889 C 17.244 12.178 16.511 13.489 16.511 13.489 Z M 17.822 13.444 L 18.689 13.444 L 18.689 12.533 C 18.689 12.533 18.333 12.578 18.111 12.911 C 17.822 13.267 17.822 13.444 17.822 13.444 Z M 19.844 12.333 L 19.844 13.444 L 21.533 13.444 C 21.533 13.444 22.2 13.289 22.2 12.4 C 22.2 11.556 21.533 11.489 21.533 11.489 L 19.844 11.489 L 19.844 11.933 L 20.8 11.956 C 20.8 11.956 21.067 11.667 21.356 12.022 C 21.644 12.356 21.689 12.533 21.689 12.533 C 21.689 12.533 21.733 13.156 21.156 12.622 C 20.556 12.089 19.844 12.333 19.844 12.333 Z M 19.889 14.244 L 19.933 16.311 C 19.933 16.311 20.711 16.467 21.289 15.978 C 21.867 15.489 21.733 15.556 21.733 15.556 C 21.733 15.556 21.822 15.467 22 15.6 C 22.2 15.756 21.911 16.133 21.911 16.133 C 21.911 16.133 21.711 16.444 21.178 16.756 C 20.622 17.022 20.022 17.067 20.022 17.067 L 20 17.356 C 20 17.356 20.378 17.556 20.956 17.556 C 21.511 17.533 21.667 17.467 21.667 17.467 C 21.667 17.467 22.778 17.133 22.778 15.822 C 22.778 14.533 21.489 14.244 21.489 14.244 L 19.889 14.244 Z M 35.511 18.356 L 24.533 6.333 C 24.533 6.333 22.667 4.378 19.489 4.467 C 16.356 4.556 14.178 7.156 14.178 7.156 C 14.178 7.156 6.156 16.022 3.8 18.733 C 1.467 21.467 3.711 25.111 3.711 25.111 C 3.711 25.111 8.511 31.289 19.933 31.044 C 31.356 30.844 35.733 25.444 36.556 23.022 C 37.4 20.6 35.511 18.356 35.511 18.356 Z M 35.378 22.667 C 34.644 24.889 30.444 29.622 19.956 29.867 C 9.444 30.067 5.022 24.533 5.022 24.533 C 5.022 24.533 2.867 21.667 5.022 19.178 C 7.178 16.689 14.733 8.156 14.733 8.156 C 14.733 8.156 16.644 5.578 19.556 5.533 C 22.489 5.444 24.111 7.333 24.111 7.333 L 34.133 18.556 C 34.089 18.533 36.156 20.489 35.378 22.667 Z M 10.622 23.889 L 9.556 25.289 L 4.867 21.911 L 5.044 21.689 C 5.133 21.733 5.244 21.778 5.333 21.867 C 5.489 21.911 5.556 21.978 5.6 21.978 C 5.689 22 5.778 22 5.867 21.978 C 5.933 21.956 6 21.889 6.067 21.822 L 8.156 18.6 C 8.222 18.511 8.244 18.467 8.267 18.4 C 8.267 18.311 8.244 18.244 8.156 18.133 C 8.111 18.044 8.022 17.933 7.956 17.867 C 7.867 17.778 7.778 17.711 7.711 17.667 L 7.867 17.4 L 10.667 19.422 L 10.489 19.644 C 10.4 19.622 10.333 19.556 10.2 19.489 C 10.089 19.444 10 19.4 9.911 19.356 C 9.8 19.311 9.711 19.311 9.644 19.333 C 9.556 19.378 9.511 19.422 9.467 19.511 L 7.489 22.489 C 7.4 22.622 7.333 22.756 7.311 22.822 C 7.289 22.933 7.289 23.022 7.311 23.111 C 7.333 23.2 7.4 23.267 7.511 23.378 C 7.622 23.467 7.756 23.556 7.956 23.711 C 8.133 23.844 8.333 23.978 8.533 24.089 C 8.711 24.178 8.867 24.244 9 24.222 C 9.2 24.222 9.4 24.133 9.689 24.044 C 9.956 23.933 10.156 23.844 10.356 23.711 L 10.622 23.889 Z M 16.422 22.667 C 16.578 22.956 16.689 23.289 16.711 23.644 C 16.756 23.978 16.689 24.356 16.556 24.756 C 16.422 25.133 16.244 25.444 16 25.733 C 15.756 26 15.489 26.244 15.178 26.4 C 14.844 26.6 14.489 26.689 14.089 26.756 C 13.711 26.778 13.289 26.756 12.844 26.6 C 12.467 26.511 12.111 26.333 11.867 26.133 C 11.578 25.933 11.333 25.689 11.178 25.4 C 11 25.111 10.889 24.778 10.867 24.444 C 10.844 24.111 10.889 23.733 11.022 23.333 C 11.178 22.933 11.356 22.6 11.622 22.333 C 11.889 22.044 12.178 21.8 12.489 21.644 C 12.844 21.489 13.178 21.4 13.578 21.356 C 13.956 21.333 14.311 21.378 14.711 21.489 C 15.089 21.6 15.422 21.756 15.733 21.978 C 16.044 22.178 16.244 22.422 16.422 22.667 Z M 14.222 25.933 C 14.4 25.733 14.556 25.533 14.733 25.267 C 14.867 25.022 15 24.733 15.133 24.4 C 15.222 24.133 15.289 23.844 15.378 23.578 C 15.422 23.289 15.422 23.022 15.4 22.778 C 15.378 22.533 15.311 22.333 15.2 22.156 C 15.067 22 14.867 21.867 14.622 21.778 C 14.2 21.667 13.8 21.778 13.422 22.111 C 13.044 22.444 12.733 22.978 12.511 23.689 C 12.4 23.978 12.311 24.311 12.267 24.556 C 12.222 24.844 12.222 25.111 12.244 25.333 C 12.267 25.556 12.356 25.778 12.489 25.933 C 12.6 26.089 12.778 26.2 13.022 26.267 C 13.267 26.356 13.489 26.356 13.711 26.267 C 13.889 26.222 14.067 26.111 14.222 25.933 Z M 21.8 23.422 L 21.533 23.422 C 21.489 23.178 21.356 22.933 21.2 22.711 C 21.044 22.444 20.911 22.311 20.778 22.311 C 20.689 22.289 20.622 22.289 20.511 22.289 C 20.422 22.289 20.311 22.289 20.222 22.289 L 20.067 22.289 L 20.156 26.4 C 20.156 26.489 20.156 26.556 20.178 26.6 C 20.222 26.689 20.267 26.733 20.356 26.756 C 20.422 26.778 20.511 26.8 20.6 26.844 C 20.711 26.844 20.8 26.867 20.889 26.867 L 20.889 27.156 L 18.2 27.2 L 18.2 26.911 C 18.267 26.911 18.356 26.889 18.467 26.889 C 18.6 26.867 18.667 26.867 18.711 26.844 C 18.8 26.778 18.867 26.733 18.889 26.689 C 18.911 26.6 18.911 26.533 18.911 26.444 L 18.844 22.311 L 18.689 22.311 C 18.6 22.311 18.489 22.311 18.4 22.311 C 18.289 22.333 18.2 22.333 18.133 22.333 C 18 22.356 17.867 22.511 17.711 22.756 C 17.578 23.022 17.467 23.267 17.378 23.489 L 17.111 23.489 L 17.089 21.978 L 21.756 21.889 L 21.8 23.422 Z M 28.067 20.444 C 27.978 20.467 27.889 20.533 27.778 20.6 C 27.644 20.644 27.556 20.733 27.467 20.8 C 27.378 20.889 27.356 21 27.356 21.178 C 27.356 21.356 27.378 21.578 27.467 21.867 L 27.978 23.689 C 28.111 24.244 28.022 24.733 27.733 25.133 C 27.4 25.578 26.956 25.911 26.333 26.089 C 25.6 26.289 24.956 26.289 24.467 26.089 C 23.956 25.911 23.644 25.511 23.511 24.956 L 22.844 22.444 C 22.822 22.333 22.756 22.289 22.756 22.244 C 22.689 22.178 22.6 22.156 22.511 22.133 C 22.422 22.133 22.356 22.133 22.244 22.133 C 22.178 22.133 22.089 22.156 22.022 22.156 L 21.956 21.889 L 24.689 21.133 L 24.756 21.4 C 24.689 21.422 24.6 21.467 24.533 21.489 C 24.467 21.533 24.378 21.578 24.311 21.622 C 24.222 21.689 24.178 21.778 24.156 21.822 C 24.156 21.911 24.156 21.978 24.178 22.067 L 24.8 24.556 C 24.933 25.022 25.133 25.378 25.422 25.511 C 25.711 25.667 26.067 25.689 26.511 25.556 C 26.933 25.467 27.222 25.222 27.4 24.933 C 27.6 24.6 27.6 24.2 27.489 23.733 L 27.044 22.067 C 26.956 21.778 26.889 21.556 26.822 21.422 C 26.733 21.289 26.667 21.178 26.556 21.156 C 26.467 21.111 26.356 21.111 26.178 21.111 C 26 21.111 25.889 21.111 25.8 21.133 L 25.756 20.867 L 28 20.2 L 28.067 20.444 Z M 32.267 23.422 C 31.933 23.6 31.644 23.756 31.311 23.822 C 30.978 23.911 30.733 23.978 30.489 24 L 30.356 24.333 L 30.022 24.533 L 29.133 22.956 L 29.444 22.778 C 29.6 22.911 29.8 23 29.978 23.089 C 30.178 23.2 30.378 23.289 30.6 23.333 C 30.822 23.378 31.044 23.422 31.267 23.378 C 31.511 23.356 31.756 23.289 32 23.133 C 32.333 22.933 32.556 22.711 32.667 22.467 C 32.756 22.244 32.756 22.022 32.667 21.8 C 32.578 21.644 32.422 21.533 32.222 21.511 C 32.022 21.489 31.711 21.511 31.356 21.6 C 31.111 21.689 30.911 21.756 30.711 21.8 C 30.511 21.844 30.333 21.889 30.133 21.933 C 29.756 22.022 29.4 22.022 29.089 21.889 C 28.8 21.778 28.578 21.556 28.422 21.311 C 28.333 21.111 28.289 20.933 28.289 20.733 C 28.311 20.533 28.378 20.333 28.489 20.089 C 28.556 19.889 28.711 19.667 28.933 19.467 C 29.156 19.222 29.422 19.044 29.711 18.889 C 30 18.689 30.289 18.6 30.578 18.511 C 30.867 18.422 31.111 18.378 31.289 18.378 L 31.4 18.044 L 31.733 17.844 L 32.556 19.311 L 32.222 19.489 C 32.067 19.4 31.889 19.289 31.711 19.156 C 31.511 19.044 31.333 18.956 31.178 18.911 C 30.978 18.867 30.8 18.867 30.6 18.889 C 30.4 18.889 30.2 18.978 29.978 19.111 C 29.711 19.244 29.533 19.422 29.422 19.667 C 29.333 19.867 29.333 20.089 29.422 20.289 C 29.511 20.444 29.644 20.556 29.867 20.578 C 30.067 20.6 30.333 20.578 30.711 20.489 C 30.911 20.444 31.133 20.378 31.333 20.289 C 31.533 20.244 31.733 20.2 31.911 20.156 C 32.356 20.067 32.689 20.067 32.978 20.156 C 33.267 20.267 33.511 20.489 33.667 20.778 C 33.756 20.956 33.8 21.156 33.8 21.4 C 33.778 21.644 33.711 21.889 33.6 22.089 C 33.467 22.333 33.289 22.556 33.089 22.778 C 32.911 23 32.622 23.2 32.267 23.422 Z M 19.711 0 C 8.844 0 0 8.844 0 19.711 C 0 30.556 8.844 39.4 19.733 39.4 C 30.6 39.4 39.444 30.556 39.444 19.711 C 39.422 8.844 30.578 0 19.711 0 Z M 19.711 38.4 C 9.422 38.4 1.022 30 1.022 19.711 C 1.022 9.4 9.422 1 19.711 1 C 30.022 1 38.422 9.4 38.422 19.711 C 38.422 30 30.022 38.4 19.711 38.4 Z" fill="transparent" height="39.40000002649094px" id="Q9kcyC7_X" transform="translate(0.311 0.4)" width="39.444444470935395px"><path d="M 8.178 0.764 C 8.178 0.764 6.311 0.475 4.889 1.964 C 3.511 3.409 3.622 5.364 3.622 5.364 L 4.867 3.586 C 4.867 3.586 5.022 3.475 4.956 3.253 C 4.867 3.053 4.867 2.986 4.867 2.986 L 4.867 2.653 L 10.244 2.609 C 10.244 2.609 11.689 2.542 11.689 4.031 C 11.689 5.52 10.689 5.609 10.689 5.609 C 10.689 5.609 12.244 5.942 12.244 7.653 C 12.244 9.409 10.4 9.875 10.4 9.875 L 6.356 9.831 C 6.356 9.831 6.022 9.564 6.378 9.409 C 6.756 9.275 6.933 9.209 6.933 9.009 C 6.933 8.809 6.933 8.809 6.933 8.809 C 6.933 8.809 6.067 8.72 5.444 7.942 C 4.844 7.209 4.978 5.986 4.978 5.986 L 4.178 5.964 L 3.667 6.742 C 3.667 6.742 3.911 8.653 4.844 9.497 C 5.756 10.364 6.4 11.142 8.6 11.031 C 10.8 10.942 12.422 9.809 12.422 9.809 L 12.844 9.431 C 12.844 9.431 13 9.097 13.333 9.297 C 13.644 9.453 13 10.12 13 10.12 C 13 10.12 11.667 11.92 8.244 12.12 C 4.844 12.32 2.467 8.786 2.622 8.609 C 2.778 8.453 2.111 9.231 2.467 9.431 C 2.844 9.631 2.644 9.942 2.644 9.942 L 0.156 9.964 C 0.156 9.964 0 10.053 0 9.72 C 0 9.431 0.267 9.453 0.267 9.453 C 0.267 9.453 1.178 9.431 1.467 8.942 C 1.756 8.497 2.2 7.809 2.2 7.809 C 2.2 7.809 1.933 6.297 2 5.653 C 2.044 5.031 2.533 1.653 5.133 0.542 C 7.756 -0.547 10.356 0.342 10.356 0.342 C 10.356 0.342 10.822 0.609 11.178 0.342 C 11.511 0.075 11.644 -0.191 11.911 0.32 C 12.133 0.831 12.667 1.653 12.667 1.653 C 12.667 1.653 12.911 2.386 11.844 1.786 C 10.756 1.164 9.022 0.809 9.022 0.809 L 8.178 0.764 Z M 6.022 5.964 L 6.933 5.964 L 6.933 7.786 C 6.933 7.786 6.422 7.675 6.222 7.231 C 6 6.809 6.022 5.964 6.022 5.964 Z M 4.733 5.231 L 5.111 5.253 C 5.111 5.253 5.311 4.653 5.822 4.275 C 6.356 3.897 6.933 3.742 6.933 3.742 C 6.933 3.742 7.067 3.253 6.689 3.297 C 6.311 3.32 5.978 3.342 5.978 3.342 C 5.978 3.342 5.778 3.342 5.644 3.631 C 5.467 3.92 4.733 5.231 4.733 5.231 Z M 6.044 5.186 L 6.911 5.186 L 6.911 4.275 C 6.911 4.275 6.556 4.32 6.333 4.653 C 6.044 5.009 6.044 5.186 6.044 5.186 Z M 8.067 4.075 L 8.067 5.186 L 9.756 5.186 C 9.756 5.186 10.422 5.031 10.422 4.142 C 10.422 3.297 9.756 3.231 9.756 3.231 L 8.067 3.231 L 8.067 3.675 L 9.022 3.697 C 9.022 3.697 9.289 3.409 9.578 3.764 C 9.867 4.097 9.911 4.275 9.911 4.275 C 9.911 4.275 9.956 4.897 9.378 4.364 C 8.778 3.831 8.067 4.075 8.067 4.075 Z M 8.111 5.986 L 8.156 8.053 C 8.156 8.053 8.933 8.209 9.511 7.72 C 10.089 7.231 9.956 7.297 9.956 7.297 C 9.956 7.297 10.044 7.209 10.222 7.342 C 10.422 7.497 10.133 7.875 10.133 7.875 C 10.133 7.875 9.933 8.186 9.4 8.497 C 8.844 8.764 8.244 8.809 8.244 8.809 L 8.222 9.097 C 8.222 9.097 8.6 9.297 9.178 9.297 C 9.733 9.275 9.889 9.209 9.889 9.209 C 9.889 9.209 11 8.875 11 7.564 C 11 6.275 9.711 5.986 9.711 5.986 L 8.111 5.986 Z" fill="var(--token-0109aa55-a8db-4917-9953-a1fb1bfad426, rgb(255, 255, 255))" height="12.12781500209715px" id="RWfwSxqnJ" transform="translate(11.778 8.258)" width="13.418192729766801px"/><path d="M 32.772 13.892 L 21.794 1.87 C 21.794 1.87 19.927 -0.086 16.749 0.003 C 13.616 0.092 11.438 2.692 11.438 2.692 C 11.438 2.692 3.416 11.558 1.061 14.27 C -1.273 17.003 0.972 20.647 0.972 20.647 C 0.972 20.647 5.772 26.825 17.194 26.581 C 28.616 26.381 32.994 20.981 33.816 18.558 C 34.661 16.136 32.772 13.892 32.772 13.892 Z M 32.638 18.203 C 31.905 20.425 27.705 25.158 17.216 25.403 C 6.705 25.603 2.283 20.07 2.283 20.07 C 2.283 20.07 0.127 17.203 2.283 14.714 C 4.438 12.225 11.994 3.692 11.994 3.692 C 11.994 3.692 13.905 1.114 16.816 1.07 C 19.749 0.981 21.372 2.87 21.372 2.87 L 31.394 14.092 C 31.349 14.07 33.416 16.025 32.638 18.203 Z" fill="var(--token-0109aa55-a8db-4917-9953-a1fb1bfad426, rgb(255, 255, 255))" height="26.58778625430763px" id="fHV315VT4" transform="translate(2.739 4.464)" width="34.03346832808204px"/><path d="M 5.756 6.489 L 4.689 7.889 L 0 4.511 L 0.178 4.289 C 0.267 4.333 0.378 4.378 0.467 4.467 C 0.622 4.511 0.689 4.578 0.733 4.578 C 0.822 4.6 0.911 4.6 1 4.578 C 1.067 4.556 1.133 4.489 1.2 4.422 L 3.289 1.2 C 3.356 1.111 3.378 1.067 3.4 1 C 3.4 0.911 3.378 0.844 3.289 0.733 C 3.244 0.644 3.156 0.533 3.089 0.467 C 3 0.378 2.911 0.311 2.844 0.267 L 3 0 L 5.8 2.022 L 5.622 2.244 C 5.533 2.222 5.467 2.156 5.333 2.089 C 5.222 2.044 5.133 2 5.044 1.956 C 4.933 1.911 4.844 1.911 4.778 1.933 C 4.689 1.978 4.644 2.022 4.6 2.111 L 2.622 5.089 C 2.533 5.222 2.467 5.356 2.444 5.422 C 2.422 5.533 2.422 5.622 2.444 5.711 C 2.467 5.8 2.533 5.867 2.644 5.978 C 2.756 6.067 2.889 6.156 3.089 6.311 C 3.267 6.444 3.467 6.578 3.667 6.689 C 3.844 6.778 4 6.844 4.133 6.822 C 4.333 6.822 4.533 6.733 4.822 6.644 C 5.089 6.533 5.289 6.444 5.489 6.311 L 5.756 6.489 Z" fill="var(--token-0109aa55-a8db-4917-9953-a1fb1bfad426, rgb(255, 255, 255))" height="7.888888888888893px" id="YHb6LVfw9" transform="translate(4.867 17.4)" width="5.800000000000006px"/><path d="M 5.561 1.317 C 5.717 1.606 5.828 1.939 5.85 2.294 C 5.894 2.628 5.828 3.006 5.694 3.406 C 5.561 3.783 5.383 4.094 5.139 4.383 C 4.894 4.65 4.628 4.894 4.317 5.05 C 3.983 5.25 3.628 5.339 3.228 5.406 C 2.85 5.428 2.428 5.406 1.983 5.25 C 1.605 5.161 1.25 4.983 1.005 4.783 C 0.717 4.583 0.472 4.339 0.317 4.05 C 0.139 3.761 0.028 3.428 0.005 3.094 C -0.017 2.761 0.028 2.383 0.161 1.983 C 0.317 1.583 0.494 1.25 0.761 0.983 C 1.028 0.694 1.317 0.45 1.628 0.294 C 1.983 0.139 2.317 0.05 2.717 0.006 C 3.094 -0.017 3.45 0.028 3.85 0.139 C 4.228 0.25 4.561 0.406 4.872 0.628 C 5.183 0.828 5.383 1.072 5.561 1.317 Z M 3.361 4.583 C 3.539 4.383 3.694 4.183 3.872 3.917 C 4.005 3.672 4.139 3.383 4.272 3.05 C 4.361 2.783 4.428 2.494 4.517 2.228 C 4.561 1.939 4.561 1.672 4.539 1.428 C 4.517 1.183 4.45 0.983 4.339 0.806 C 4.205 0.65 4.005 0.517 3.761 0.428 C 3.339 0.317 2.939 0.428 2.561 0.761 C 2.183 1.094 1.872 1.628 1.65 2.339 C 1.539 2.628 1.45 2.961 1.405 3.206 C 1.361 3.494 1.361 3.761 1.383 3.983 C 1.405 4.206 1.494 4.428 1.628 4.583 C 1.739 4.739 1.917 4.85 2.161 4.917 C 2.405 5.006 2.628 5.006 2.85 4.917 C 3.028 4.872 3.205 4.761 3.361 4.583 Z" fill="var(--token-0109aa55-a8db-4917-9953-a1fb1bfad426, rgb(255, 255, 255))" height="5.412853936105416px" id="p4Ng3oRxX" transform="translate(10.861 21.35)" width="5.863613288897856px"/><path d="M 4.711 1.533 L 4.444 1.533 C 4.4 1.289 4.267 1.044 4.111 0.822 C 3.956 0.556 3.822 0.422 3.689 0.422 C 3.6 0.4 3.533 0.4 3.422 0.4 C 3.333 0.4 3.222 0.4 3.133 0.4 L 2.978 0.4 L 3.067 4.511 C 3.067 4.6 3.067 4.667 3.089 4.711 C 3.133 4.8 3.178 4.844 3.267 4.867 C 3.333 4.889 3.422 4.911 3.511 4.956 C 3.622 4.956 3.711 4.978 3.8 4.978 L 3.8 5.267 L 1.111 5.311 L 1.111 5.022 C 1.178 5.022 1.267 5 1.378 5 C 1.511 4.978 1.578 4.978 1.622 4.956 C 1.711 4.889 1.778 4.844 1.8 4.8 C 1.822 4.711 1.822 4.644 1.822 4.556 L 1.756 0.422 L 1.6 0.422 C 1.511 0.422 1.4 0.422 1.311 0.422 C 1.2 0.444 1.111 0.444 1.044 0.444 C 0.911 0.467 0.778 0.622 0.622 0.867 C 0.489 1.133 0.378 1.378 0.289 1.6 L 0.022 1.6 L 0 0.089 L 4.667 0 L 4.711 1.533 Z" fill="var(--token-0109aa55-a8db-4917-9953-a1fb1bfad426, rgb(255, 255, 255))" height="5.311111111111103px" id="FenWdZ10c" transform="translate(17.089 21.889)" width="4.711111111111123px"/><path d="M 6.111 0.244 C 6.022 0.267 5.933 0.333 5.822 0.4 C 5.689 0.444 5.6 0.533 5.511 0.6 C 5.422 0.689 5.4 0.8 5.4 0.978 C 5.4 1.156 5.422 1.378 5.511 1.667 L 6.022 3.489 C 6.156 4.044 6.067 4.533 5.778 4.933 C 5.444 5.378 5 5.711 4.378 5.889 C 3.644 6.089 3 6.089 2.511 5.889 C 2 5.711 1.689 5.311 1.556 4.756 L 0.889 2.244 C 0.867 2.133 0.8 2.089 0.8 2.044 C 0.733 1.978 0.644 1.956 0.556 1.933 C 0.467 1.933 0.4 1.933 0.289 1.933 C 0.222 1.933 0.133 1.956 0.067 1.956 L 0 1.689 L 2.733 0.933 L 2.8 1.2 C 2.733 1.222 2.644 1.267 2.578 1.289 C 2.511 1.333 2.422 1.378 2.356 1.422 C 2.267 1.489 2.222 1.578 2.2 1.622 C 2.2 1.711 2.2 1.778 2.222 1.867 L 2.844 4.356 C 2.978 4.822 3.178 5.178 3.467 5.311 C 3.756 5.467 4.111 5.489 4.556 5.356 C 4.978 5.267 5.267 5.022 5.444 4.733 C 5.644 4.4 5.644 4 5.533 3.533 L 5.089 1.867 C 5 1.578 4.933 1.356 4.867 1.222 C 4.778 1.089 4.711 0.978 4.6 0.956 C 4.511 0.911 4.4 0.911 4.222 0.911 C 4.044 0.911 3.933 0.911 3.844 0.933 L 3.8 0.667 L 6.044 0 L 6.111 0.244 Z" fill="var(--token-0109aa55-a8db-4917-9953-a1fb1bfad426, rgb(255, 255, 255))" height="6.038888888888891px" id="tNuYrfOef" transform="translate(21.956 20.2)" width="6.1111111111111px"/><path d="M 3.978 5.578 C 3.644 5.756 3.356 5.911 3.022 5.978 C 2.689 6.067 2.444 6.133 2.2 6.156 L 2.067 6.489 L 1.733 6.689 L 0.844 5.111 L 1.156 4.933 C 1.311 5.067 1.511 5.156 1.689 5.244 C 1.889 5.356 2.089 5.444 2.311 5.489 C 2.533 5.533 2.756 5.578 2.978 5.533 C 3.222 5.511 3.467 5.444 3.711 5.289 C 4.044 5.089 4.267 4.867 4.378 4.622 C 4.467 4.4 4.467 4.178 4.378 3.956 C 4.289 3.8 4.133 3.689 3.933 3.667 C 3.733 3.644 3.422 3.667 3.067 3.756 C 2.822 3.844 2.622 3.911 2.422 3.956 C 2.222 4 2.044 4.044 1.844 4.089 C 1.467 4.178 1.111 4.178 0.8 4.044 C 0.511 3.933 0.289 3.711 0.133 3.467 C 0.044 3.267 0 3.089 0 2.889 C 0.022 2.689 0.089 2.489 0.2 2.244 C 0.267 2.044 0.422 1.822 0.644 1.622 C 0.867 1.378 1.133 1.2 1.422 1.044 C 1.711 0.844 2 0.756 2.289 0.667 C 2.578 0.578 2.822 0.533 3 0.533 L 3.111 0.2 L 3.444 0 L 4.267 1.467 L 3.933 1.644 C 3.778 1.556 3.6 1.444 3.422 1.311 C 3.222 1.2 3.044 1.111 2.889 1.067 C 2.689 1.022 2.511 1.022 2.311 1.044 C 2.111 1.044 1.911 1.133 1.689 1.267 C 1.422 1.4 1.244 1.578 1.133 1.822 C 1.044 2.022 1.044 2.244 1.133 2.444 C 1.222 2.6 1.356 2.711 1.578 2.733 C 1.778 2.756 2.044 2.733 2.422 2.644 C 2.622 2.6 2.844 2.533 3.044 2.444 C 3.244 2.4 3.444 2.356 3.622 2.311 C 4.067 2.222 4.4 2.222 4.689 2.311 C 4.978 2.422 5.222 2.644 5.378 2.933 C 5.467 3.111 5.511 3.311 5.511 3.556 C 5.489 3.8 5.422 4.044 5.311 4.244 C 5.178 4.489 5 4.711 4.8 4.933 C 4.622 5.156 4.333 5.356 3.978 5.578 Z" fill="var(--token-0109aa55-a8db-4917-9953-a1fb1bfad426, rgb(255, 255, 255))" height="6.688888888888883px" id="nSpDVBTIM" transform="translate(28.289 17.844)" width="5.511111111111106px"/><path d="M 19.711 0 C 8.844 0 0 8.844 0 19.711 C 0 30.556 8.844 39.4 19.733 39.4 C 30.6 39.4 39.444 30.556 39.444 19.711 C 39.422 8.844 30.578 0 19.711 0 Z M 19.711 38.4 C 9.422 38.4 1.022 30 1.022 19.711 C 1.022 9.4 9.422 1 19.711 1 C 30.022 1 38.422 9.4 38.422 19.711 C 38.422 30 30.022 38.4 19.711 38.4 Z" fill="var(--token-0109aa55-a8db-4917-9953-a1fb1bfad426, rgb(255, 255, 255))" height="39.40000002649094px" id="qV5mgcOkF" width="39.444444470935395px"/></g></svg>