<svg display="block" role="presentation" viewBox="0 0 40 40" xmlns="http://www.w3.org/2000/svg"><path d="M 19.92 0 C 8.92 0 0 4.44 0 9.92 C 0 15.4 8.92 19.84 19.92 19.84 C 30.92 19.84 39.84 15.4 39.84 9.92 C 39.84 4.44 30.92 0 19.92 0 Z M 19.92 19 C 9.4 19 0.92 14.96 0.92 9.92 C 0.92 4.88 9.4 0.84 19.92 0.84 C 30.44 0.84 38.92 4.92 38.92 9.92 C 38.92 14.92 30.44 19 19.92 19 Z" fill="var(--token-0109aa55-a8db-4917-9953-a1fb1bfad426, rgb(255, 255, 255))" height="19.840000000000003px" id="sAffivJm4" transform="translate(0.08 9.32)" width="39.8399999985099px"/><path d="M 18.68 0 C 8.36 0 0 3.92 0 8.72 C 0 13.52 8.36 17.44 18.68 17.44 C 29 17.44 37.36 13.52 37.36 8.72 C 37.36 3.92 29 0 18.68 0 Z M 26.6 6.72 L 28.52 5.88 L 26.84 5.88 L 27.28 4.64 L 30.52 4.64 L 30.12 5.88 L 26.48 7.12 Z M 23.96 2.72 C 24.4 2.72 24.88 2.84 25.28 3.04 C 25.64 3.28 25.92 3.68 25.96 4.12 C 26 4.72 25.92 5.32 25.68 5.88 C 25.44 6.44 25.04 6.92 24.56 7.28 C 24.12 7.6 23.6 7.76 23.04 7.76 L 20.72 7.76 L 22.28 3.2 C 22.32 3.04 22.32 2.88 22.28 2.68 L 23.96 2.72 Z M 17.32 3.24 C 17.4 3.08 17.4 2.88 17.32 2.72 L 18.84 2.72 L 19.28 5 L 20.08 2.72 L 21.52 2.72 L 19.68 7.76 L 18.28 7.76 L 17.88 5.56 L 17 7.76 L 15.72 7.76 Z M 13.6 2.72 L 15.16 2.72 L 15.44 7.76 L 14 7.76 L 13.92 7.12 L 12.48 7.12 L 12 7.76 L 10.56 7.76 L 13.52 3.2 C 13.6 3.08 13.64 2.88 13.6 2.72 Z M 8.72 3.24 C 8.76 3.08 8.76 2.88 8.72 2.72 L 10.44 2.72 L 9.12 6.64 L 10.6 6.64 L 10.12 7.8 L 7.12 7.8 Z M 8.52 10.56 L 8.04 11.8 L 4.76 11.8 L 5.24 10.56 L 8.88 9.32 L 8.72 9.72 L 6.8 10.52 L 8.52 10.56 Z M 13.88 10.8 C 13.76 11.12 13.56 11.36 13.28 11.56 C 13.04 11.76 12.72 11.88 12.4 11.92 L 13.4 13.8 L 11.92 13.8 L 10.96 12 L 10.32 13.8 L 8.84 13.8 L 10.48 9.24 C 10.56 9.08 10.56 8.88 10.48 8.72 L 12.52 8.72 C 12.84 8.72 13.16 8.8 13.48 8.96 C 13.68 9.04 13.84 9.2 13.96 9.4 C 14.12 9.88 14.12 10.4 13.88 10.8 Z M 18.32 12.72 C 18 13.12 17.6 13.44 17.12 13.68 C 16.68 13.88 16.2 13.92 15.72 13.88 C 15 13.72 14.44 13.16 14.28 12.44 C 14.16 11.92 14.16 11.4 14.32 10.92 C 14.64 9.92 15.4 9.12 16.36 8.76 C 16.96 8.56 17.6 8.68 18.12 9 C 18.52 9.28 18.8 9.68 18.88 10.16 C 19.12 11.04 18.92 12 18.32 12.72 Z M 19.52 13.84 L 19.44 9.28 C 19.44 9.12 19.4 8.92 19.32 8.76 L 20.88 8.76 L 20.88 11.48 L 22.72 8.76 L 24.4 8.76 L 20.64 13.88 L 19.52 13.84 Z M 26.16 13.84 L 22.96 13.84 L 24.52 9.4 C 24.6 9.2 24.6 8.96 24.52 8.76 L 27.92 8.76 L 27.56 9.88 L 25.88 9.88 L 25.6 10.76 L 26.88 10.76 L 26.48 11.88 L 25.24 11.88 C 25.12 12.16 25.04 12.44 24.96 12.76 L 26.64 12.76 Z M 31.88 10.8 C 31.76 11.12 31.56 11.4 31.28 11.56 C 31.04 11.76 30.72 11.88 30.4 11.92 L 31.4 13.8 L 29.92 13.8 L 28.96 12 L 28.32 13.8 L 26.84 13.8 L 28.48 9.24 C 28.56 9.08 28.56 8.88 28.48 8.72 L 30.52 8.72 C 30.84 8.72 31.16 8.8 31.44 8.96 C 31.64 9.04 31.8 9.2 31.92 9.4 C 32.08 9.88 32.08 10.36 31.88 10.8 Z" fill="var(--token-0109aa55-a8db-4917-9953-a1fb1bfad426, rgb(255, 255, 255))" height="17.44px" id="kpQm1pJT1" transform="translate(1.32 10.52)" width="37.35999997615814px"/><path d="M 0.6 2.52 C 0.76 2.44 0.88 2.36 1 2.24 C 1.2 2.04 1.36 1.8 1.44 1.52 C 1.64 1 1.92 0 1.28 0 L 0.92 0 L 0 2.6 L 0.36 2.6 C 0.44 2.6 0.52 2.56 0.6 2.52 Z" fill="var(--token-0109aa55-a8db-4917-9953-a1fb1bfad426, rgb(255, 255, 255))" height="2.5999999999999943px" id="XQwlHGcGW" transform="translate(24 14.52)" width="1.6765642692117098px"/><path d="M 0.6 0 L 0.28 0 L 0 0.84 L 0.4 0.84 C 0.92 0.84 1.44 0 0.6 0 Z" fill="var(--token-0109aa55-a8db-4917-9953-a1fb1bfad426, rgb(255, 255, 255))" height="1px" id="w1yT8no8r" transform="translate(30.76 20.52)" width="1.0430808200968826px"/><path d="M 0.6 0 L 0.28 0 L 0 0.84 L 0.4 0.84 C 1 0.84 1.44 0 0.6 0 Z" fill="var(--token-0109aa55-a8db-4917-9953-a1fb1bfad426, rgb(255, 255, 255))" height="1px" id="HoMIb6ipD" transform="translate(12.76 20.52)" width="1.0653007424255136px"/><path d="M 0.72 1.08 L 0.64 0 L 0 1.08 Z" fill="var(--token-0109aa55-a8db-4917-9953-a1fb1bfad426, rgb(255, 255, 255))" height="1.0799999999999983px" id="sGumINde1" transform="translate(14.52 15.44)" width="1px"/><path d="M 0.576 0.256 C 0.256 0.616 0.056 1.096 0.016 1.576 C -0.024 1.856 0.016 2.136 0.096 2.376 C 0.216 2.656 0.576 2.776 0.856 2.616 C 0.936 2.576 1.016 2.536 1.056 2.456 C 1.536 1.936 1.776 1.216 1.656 0.496 C 1.616 0.176 1.296 -0.064 0.976 0.016 C 0.776 0.056 0.656 0.136 0.576 0.256 Z" fill="var(--token-0109aa55-a8db-4917-9953-a1fb1bfad426, rgb(255, 255, 255))" height="2.687169304738646px" id="hN_LEgJqU" transform="translate(17.064 20.504)" width="1.6862722733292088px"/></svg>