<svg display="block" role="presentation" viewBox="0 0 24 24" xmlns="http://www.w3.org/2000/svg"><path d="M 15.92 1.01 C 15.72 0.42 15.16 0 14.5 0 L 3.5 0 C 2.84 0 2.29 0.42 2.08 1.01 L 0 7 L 0 15 C 0 15.55 0.45 16 1 16 L 2 16 C 2.55 16 3 15.55 3 15 L 3 14 L 15 14 L 15 15 C 15 15.55 15.45 16 16 16 L 17 16 C 17.55 16 18 15.55 18 15 L 18 7 Z M 3.85 2 L 14.14 2 L 15.18 5 L 2.81 5 Z M 16 12 L 2 12 L 2 7.34 L 2.12 7 L 15.89 7 L 16 7.34 Z" fill="var(--esondr, rgb(0,0,0))" height="16px" id="tCX6nIwtb" transform="translate(3 4)" width="18px"/><path d="M 1.5 3 C 2.328 3 3 2.328 3 1.5 C 3 0.672 2.328 0 1.5 0 C 0.672 0 0 0.672 0 1.5 C 0 2.328 0.672 3 1.5 3 Z" fill="var(--esondr, rgb(0,0,0))" height="3px" id="zMUr26dUb" transform="translate(6 12)" width="3px"/><path d="M 1.5 3 C 2.328 3 3 2.328 3 1.5 C 3 0.672 2.328 0 1.5 0 C 0.672 0 0 0.672 0 1.5 C 0 2.328 0.672 3 1.5 3 Z" fill="var(--esondr, rgb(0,0,0))" height="3px" id="FONqVqpJC" transform="translate(15 12)" width="3px"/></svg>