<svg display="block" role="presentation" viewBox="0 0 24 24" xmlns="http://www.w3.org/2000/svg"><path d="M 3.35 3.639 C 2.45 2.999 2.23 1.759 2.86 0.849 C 3.49 -0.051 4.74 -0.271 5.65 0.359 C 6.55 0.999 6.77 2.239 6.14 3.149 C 5.5 4.049 4.26 4.269 3.35 3.639 Z M 14 16.999 L 6.93 16.999 C 5.45 16.999 4.19 15.919 3.97 14.459 L 2 4.999 L 0 4.999 L 1.99 14.759 C 2.37 17.199 4.47 18.999 6.94 18.999 L 14 18.999 Z M 14.23 12.999 L 9.35 12.999 L 8.32 8.899 C 9.9 9.789 11.6 10.439 13.47 10.119 L 13.47 7.989 C 11.84 8.299 10.03 7.719 8.78 6.739 L 7.14 5.469 C 6.91 5.289 6.65 5.169 6.38 5.089 C 6.06 4.999 5.72 4.969 5.39 5.029 L 5.37 5.029 C 4.14 5.249 3.32 6.419 3.53 7.639 L 4.88 13.559 C 5.16 14.979 6.39 15.999 7.83 15.999 L 14.68 15.999 L 18.5 18.999 L 20 17.499 Z" fill="var(--esondr, rgb(0,0,0))" height="18.999398204345702px" id="MAm8uOKhM" transform="translate(2 2.5)" width="20px"/></svg>