<svg display="block" role="presentation" viewBox="0 0 24 24" xmlns="http://www.w3.org/2000/svg"><path d="M 8 13 L 13.88 13 C 14.15 12.69 14.55 12.5 15 12.5 C 15.83 12.5 16.5 13.17 16.5 14 C 16.5 14.83 15.83 15.5 15 15.5 C 14.56 15.5 14.16 15.31 13.88 15 L 9.9 15 C 9.44 17.28 7.42 19 5 19 C 2.24 19 0 16.76 0 14 C 0 11.58 1.72 9.56 4 9.1 L 4 11.17 C 2.84 11.58 2 12.7 2 14 C 2 15.65 3.35 17 5 17 C 6.65 17 8 15.65 8 14 Z M 10.5 2 C 12.15 2 13.5 3.35 13.5 5 L 15.5 5 C 15.5 2.24 13.26 0 10.5 0 C 7.74 0 5.5 2.24 5.5 5 C 5.5 6.43 6.1 7.71 7.05 8.62 L 4.7 12.52 C 4.02 12.66 3.5 13.27 3.5 14 C 3.5 14.83 4.17 15.5 5 15.5 C 5.83 15.5 6.5 14.83 6.5 14 C 6.5 13.84 6.48 13.69 6.43 13.55 L 9.81 7.92 C 8.49 7.61 7.5 6.42 7.5 5 C 7.5 3.35 8.85 2 10.5 2 Z M 15 11 C 14.36 11 13.77 11.2 13.28 11.54 L 10.23 6.47 C 9.53 6.35 9 5.74 9 5 C 9 4.17 9.67 3.5 10.5 3.5 C 11.33 3.5 12 4.17 12 5 C 12 5.15 11.98 5.29 11.94 5.43 L 14.13 9.08 C 14.41 9.03 14.7 9 15 9 C 17.76 9 20 11.24 20 14 C 20 16.76 17.76 19 15 19 C 13.15 19 11.53 17.99 10.67 16.5 L 13.34 16.5 C 13.82 16.82 14.39 17 15 17 C 16.65 17 18 15.65 18 14 C 18 12.35 16.65 11 15 11 Z" fill="var(--esondr, rgb(0,0,0))" height="19.000000381469725px" id="XenWUX8II" transform="translate(2 2.5)" width="20px"/></svg>