<svg display="block" role="presentation" viewBox="0 0 24 24" xmlns="http://www.w3.org/2000/svg"><path d="M 4 12.999 C 3.17 12.999 2.42 13.339 1.88 13.879 C 0.7 15.059 0 19.999 0 19.999 C 0 19.999 4.94 19.299 6.12 18.119 C 6.66 17.579 7 16.829 7 15.999 C 7 14.339 5.66 12.999 4 12.999 Z M 4.71 16.709 C 4.43 16.989 2.54 17.469 2.54 17.469 C 2.54 17.469 3.01 15.589 3.3 15.299 C 3.47 15.109 3.72 14.999 4 14.999 C 4.55 14.999 5 15.449 5 15.999 C 5 16.279 4.89 16.529 4.71 16.709 Z M 15.42 11.649 C 21.78 5.289 19.66 0.339 19.66 0.339 C 19.66 0.339 14.71 -1.781 8.35 4.579 L 5.86 4.079 C 5.21 3.949 4.53 4.159 4.05 4.629 L 0 8.689 L 5 10.829 L 9.17 14.999 L 11.31 19.999 L 15.36 15.949 C 15.83 15.479 16.04 14.799 15.91 14.139 Z M 5.41 8.829 L 3.5 8.009 L 5.47 6.039 L 6.91 6.329 C 6.34 7.159 5.83 8.029 5.41 8.829 Z M 11.99 16.499 L 11.17 14.589 C 11.97 14.169 12.84 13.659 13.66 13.089 L 13.95 14.529 Z M 14 10.239 C 12.68 11.559 10.62 12.639 9.96 12.969 L 7.03 10.039 C 7.35 9.389 8.43 7.329 9.76 5.999 C 14.44 1.319 17.99 2.009 17.99 2.009 C 17.99 2.009 18.68 5.559 14 10.239 Z M 13 8.999 C 14.1 8.999 15 8.099 15 6.999 C 15 5.899 14.1 4.999 13 4.999 C 11.9 4.999 11 5.899 11 6.999 C 11 8.099 11.9 8.999 13 8.999 Z" fill="var(--esondr, rgb(0,0,0))" height="19.9992px" id="ES_Pdc5Te" transform="translate(2 2)" width="19.99917px"/></svg>